<?xml version="1.0" encoding="UTF-8"?><svg id="Layer_2" xmlns="http://www.w3.org/2000/svg" viewBox="0 0 521.79 114.75"><defs><style>.cls-1{fill:#5cbafa;}</style></defs><g id="Layer_1-2"><g><path class="cls-1" d="M0,113.19V31.81H15.9v12.66c6.95-9.42,16.37-14.05,28.26-14.05,18.53,0,30.11,11.43,30.11,33.82v48.95h-16.06v-45.4c0-14.98-6.02-22.39-17.91-22.39-7.26,0-13.13,2.78-17.6,8.49-4.48,5.71-6.64,12.82-6.64,21.31v37.99H0Z"/><path class="cls-1" d="M89.02,31.81h16.21v45.56c0,14.98,5.87,22.39,17.76,22.39,14.83,0,24.24-11.12,24.24-27.95V31.81h16.06V113.19h-15.88l-.03-11.27c-7.41,8.49-16.83,12.82-28.11,12.82-18.68,0-30.26-11.43-30.26-33.82V31.81Z"/><rect class="cls-1" x="263.9" width="16.99" height="113.19"/><path class="cls-1" d="M359.34,65.63c-1.08-12.2-8.8-20.08-21.77-20.08s-21.62,7.1-23.63,20.08h45.4Zm-45.25,13.74c2.32,12.2,12.05,20.23,24.86,20.23,8.65,0,16.99-2.47,25.02-7.41l6.18,13.13c-.93,.77-2.32,1.7-4.02,2.78-1.7,1.08-5.25,2.47-10.81,4.17-5.4,1.7-11.12,2.63-16.83,2.47-11.27-.15-21-4.17-29.18-12.05-8.03-7.88-12.05-18.07-12.05-30.26s3.71-22.24,11.27-30.11c7.57-7.88,16.99-11.89,28.57-11.89,12.35,0,21.93,3.86,28.57,11.58,6.64,7.57,10.04,17.29,10.04,28.88,0,2.93-.15,5.71-.62,8.49h-61Z"/><path class="cls-1" d="M390.22,113.19V31.81h15.76v12.51c6.04-15,29.64-13.05,29.64-13.05v15.83h-6.79c-15.29,0-22.7,12.2-22.7,28.42v37.68h-15.91Z"/><path class="cls-1" d="M464.19,53.74c-4.63,4.79-6.95,11.27-6.95,19.15,0,7.41,2.16,13.59,6.64,18.69,4.48,4.94,10.35,7.41,17.45,7.41,6.64,0,12.2-2.47,16.99-7.41,4.79-4.94,7.26-11.12,7.26-18.69s-2.32-13.74-6.95-18.84c-4.63-5.1-10.35-7.72-17.14-7.72s-12.66,2.47-17.29,7.41m41.9-21.93h15.7V113.19h-15.42l-.02-11.27c-5.56,7.26-15.13,12.66-26.1,12.66s-21-3.86-28.57-11.58c-7.57-7.72-11.27-17.76-11.27-30.11s3.71-22.24,11.27-30.27c7.57-8.19,16.99-12.2,28.41-12.2s19.77,4.02,25.94,12.2l.05-10.81Z"/><path class="cls-1" d="M242.44,88.02l-3.24,2.62c-2.01,1.7-5.1,3.55-9.26,5.25-4.02,1.7-8.03,2.62-11.89,2.62-16.52,0-25.94-11.43-24.71-27.95,.46-7.26,3.24-13.28,8.03-17.76,4.79-4.63,10.81-6.95,17.91-6.8,5.12,0,10.15,2.07,14.05,4.26,3.28,1.84,6.25,4.18,7.27,5.01l6.95-13.13s-12.85-11.74-28.57-11.74c-12.05-.31-22.08,3.55-30.27,11.74-8.03,8.19-12.2,18.07-12.36,29.8-.15,12.2,3.4,22.39,10.81,30.57,7.41,8.19,17.45,12.2,30.11,12.2,11.89,0,20.85-4.32,26.25-8.03,4.17-2.93,4.79-3.71,5.41-4.32l-6.49-14.36Z"/></g></g></svg>