<?xml version="1.0" encoding="UTF-8"?>
<!DOCTYPE svg PUBLIC "-//W3C//DTD SVG 1.1//EN" "http://www.w3.org/Graphics/SVG/1.1/DTD/svg11.dtd">
<svg xmlns="http://www.w3.org/2000/svg" version="1.1" width="256px" height="192px" style="shape-rendering:geometricPrecision; text-rendering:geometricPrecision; image-rendering:optimizeQuality; fill-rule:evenodd; clip-rule:evenodd" xmlns:xlink="http://www.w3.org/1999/xlink">
<g><path style="opacity:0.982" fill="#d1d2da" d="M 204.5,29.5 C 170.264,28.1713 135.931,28.1713 101.5,29.5C 99.5,29.5 97.5,29.5 95.5,29.5C 95.5,27.5 95.5,25.5 95.5,23.5C 134.167,23.5 172.833,23.5 211.5,23.5C 211.5,25.5 211.5,27.5 211.5,29.5C 209.167,29.5 206.833,29.5 204.5,29.5 Z"/></g>
<g><path style="opacity:0.994" fill="#f1f2f5" d="M 204.5,29.5 C 204.5,51.1667 204.5,72.8333 204.5,94.5C 170.167,94.5 135.833,94.5 101.5,94.5C 101.5,72.8333 101.5,51.1667 101.5,29.5C 135.931,28.1713 170.264,28.1713 204.5,29.5 Z"/></g>
<g><path style="opacity:0.966" fill="#eff1f3" d="M 40.5,29.5 C 51.106,30.1188 61.7727,30.4521 72.5,30.5C 72.5,43.1667 72.5,55.8333 72.5,68.5C 59.5,68.5 46.5,68.5 33.5,68.5C 33.5,55.8333 33.5,43.1667 33.5,30.5C 36.0593,30.8016 38.3926,30.4682 40.5,29.5 Z"/></g>
<g><path style="opacity:1" fill="#d4d5dc" d="M 122.5,36.5 C 134.464,35.9647 140.297,41.6313 140,53.5C 134.648,64.0789 126.815,66.2455 116.5,60C 109.819,49.9149 111.819,42.0816 122.5,36.5 Z"/></g>
<g><path style="opacity:1" fill="#7eb3fb" d="M 185.5,49.5 C 185.713,46.525 186.713,43.8584 188.5,41.5C 189.95,42.8498 190.617,44.5165 190.5,46.5C 196.982,45.1649 197.149,45.8316 191,48.5C 190.077,47.2412 189.243,45.9079 188.5,44.5C 187.675,46.3596 186.675,48.0262 185.5,49.5 Z"/></g>
<g><path style="opacity:1" fill="#7ab0fb" d="M 185.5,49.5 C 185.244,51.9372 184.577,54.2706 183.5,56.5C 181.604,57.6394 180.604,56.9728 180.5,54.5C 181.117,54.6107 181.617,54.944 182,55.5C 183.082,53.3819 184.249,51.3819 185.5,49.5 Z"/></g>
<g><path style="opacity:1" fill="#72aefb" d="M 180.5,54.5 C 178.643,51.9824 176.81,51.9824 175,54.5C 173.961,53.7562 173.461,52.7562 173.5,51.5C 174.939,52.5092 176.272,52.1759 177.5,50.5C 179.288,51.2826 180.288,52.6159 180.5,54.5 Z"/></g>
<g><path style="opacity:1" fill="#73adfb" d="M 173.5,51.5 C 171.386,52.3602 170.22,54.0268 170,56.5C 169.517,55.552 169.351,54.552 169.5,53.5C 163.501,55.0126 163.168,54.3459 168.5,51.5C 169.086,51.7093 169.586,52.0426 170,52.5C 170.667,51.1667 171.333,49.8333 172,48.5C 173.039,49.2438 173.539,50.2438 173.5,51.5 Z"/></g>
<g><path style="opacity:1" fill="#95c4fe" d="M 189.5,73.5 C 190.833,73.5 192.167,73.5 193.5,73.5C 193.5,79.5 193.5,85.5 193.5,91.5C 192.167,91.5 190.833,91.5 189.5,91.5C 189.5,85.5 189.5,79.5 189.5,73.5 Z"/></g>
<g><path style="opacity:0.948" fill="#d2e1f7" d="M 74.5,81.5 C 73.8333,81.5 73.5,81.8333 73.5,82.5C 71.712,82.2148 70.0453,82.5481 68.5,83.5C 69.6816,85.4669 69.0149,86.8003 66.5,87.5C 67.1667,88.1667 67.8333,88.8333 68.5,89.5C 65.8068,90.5318 65.1402,92.1985 66.5,94.5C 63.6874,94.9754 61.6874,93.9754 60.5,91.5C 61.2389,91.631 61.9056,91.4643 62.5,91C 61.7476,90.3292 61.4142,89.4959 61.5,88.5C 61.7709,86.6203 61.1042,85.287 59.5,84.5C 60.4756,83.1851 61.4756,81.8518 62.5,80.5C 65.5539,79.6534 68.5539,78.6534 71.5,77.5C 73.4677,78.1001 74.4677,79.4334 74.5,81.5 Z"/></g>
<g><path style="opacity:1" fill="#2a88fe" d="M 184.5,77.5 C 185.5,77.5 186.5,77.5 187.5,77.5C 187.5,82.1667 187.5,86.8333 187.5,91.5C 186.5,91.5 185.5,91.5 184.5,91.5C 184.5,86.8333 184.5,82.1667 184.5,77.5 Z"/></g>
<g><path style="opacity:0.979" fill="#2d88fd" d="M 74.5,81.5 C 79.4951,81.1248 81.4951,83.4582 80.5,88.5C 79.2395,94.1385 80.9061,98.4718 85.5,101.5C 89.1803,105.183 92.5136,109.183 95.5,113.5C 91.5366,115.828 87.5366,118.162 83.5,120.5C 79.8333,120.5 76.1667,120.5 72.5,120.5C 68.025,116.229 64.525,111.229 62,105.5C 60.6288,103.959 59.1288,102.625 57.5,101.5C 53.1164,98.1181 49.4497,94.1181 46.5,89.5C 46.5796,87.6701 47.413,86.3367 49,85.5C 52.4408,84.6178 55.9408,84.2845 59.5,84.5C 61.1042,85.287 61.7709,86.6203 61.5,88.5C 58.2855,88.9865 57.9522,89.9865 60.5,91.5C 61.6874,93.9754 63.6874,94.9754 66.5,94.5C 68.5038,96.1903 70.8371,97.5236 73.5,98.5C 74.2309,96.5988 74.2309,94.5988 73.5,92.5C 74.5,92.5 75.5,92.5 76.5,92.5C 76.7678,90.901 76.4345,89.5676 75.5,88.5C 75.6107,87.8826 75.944,87.3826 76.5,87C 75.1175,85.7292 74.1175,84.2292 73.5,82.5C 73.5,81.8333 73.8333,81.5 74.5,81.5 Z M 61.5,88.5 C 61.4142,89.4959 61.7476,90.3292 62.5,91C 61.9056,91.4643 61.2389,91.631 60.5,91.5C 57.9522,89.9865 58.2855,88.9865 61.5,88.5 Z"/></g>
<g><path style="opacity:1" fill="#348cfe" d="M 178.5,81.5 C 179.833,81.5 181.167,81.5 182.5,81.5C 182.5,84.8333 182.5,88.1667 182.5,91.5C 181.167,91.5 179.833,91.5 178.5,91.5C 178.5,88.1667 178.5,84.8333 178.5,81.5 Z"/></g>
<g><path style="opacity:1" fill="#234b8e" d="M 167.5,82.5 C 168.833,82.5 170.167,82.5 171.5,82.5C 171.5,85.5 171.5,88.5 171.5,91.5C 170.167,91.5 168.833,91.5 167.5,91.5C 167.5,88.5 167.5,85.5 167.5,82.5 Z"/></g>
<g><path style="opacity:1" fill="#053d85" d="M 173.5,83.5 C 174.5,83.5 175.5,83.5 176.5,83.5C 176.5,86.1667 176.5,88.8333 176.5,91.5C 175.5,91.5 174.5,91.5 173.5,91.5C 173.5,88.8333 173.5,86.1667 173.5,83.5 Z"/></g>
<g><path style="opacity:1" fill="#5c81af" d="M 173.5,83.5 C 174.568,82.5655 175.901,82.2322 177.5,82.5C 177.81,85.7131 177.477,88.7131 176.5,91.5C 176.5,88.8333 176.5,86.1667 176.5,83.5C 175.5,83.5 174.5,83.5 173.5,83.5 Z"/></g>
<g><path style="opacity:0.813" fill="#eff0f2" d="M 33.5,88.5 C 35.9115,88.1367 37.4115,89.1367 38,91.5C 41.8333,90 43,91.1667 41.5,95C 40.2068,95.49 38.8734,95.6567 37.5,95.5C 37.2907,97.7144 38.124,99.381 40,100.5C 45.8673,98.3617 47.3673,99.8617 44.5,105C 45.2865,107.099 45.6199,109.266 45.5,111.5C 49.938,110.425 51.938,112.092 51.5,116.5C 48.6437,116.928 45.6437,117.095 42.5,117C 40.3651,118.381 38.0318,119.381 35.5,120C 38.3838,121.037 39.0504,122.871 37.5,125.5C 35.5095,126.427 33.5095,126.594 31.5,126C 33,127.5 34.5,129 36,130.5C 38.0677,127.886 40.5677,127.219 43.5,128.5C 44.6139,129.723 44.7805,131.056 44,132.5C 42.2663,133.249 40.433,133.749 38.5,134C 41.6912,135.087 45.0245,135.92 48.5,136.5C 47.2742,142.855 45.9409,149.188 44.5,155.5C 40.5,156.833 36.5,156.833 32.5,155.5C 30.9516,148.876 29.6182,142.209 28.5,135.5C 31.1873,135.664 33.854,135.497 36.5,135C 33.9535,131.177 30.2869,129.51 25.5,130C 24.0284,126.448 25.3617,124.782 29.5,125C 29.0276,122.601 30.0276,120.601 32.5,119C 29.8228,116.486 30.3228,114.653 34,113.5C 36.0577,114.112 37.891,115.112 39.5,116.5C 45.4481,112.047 44.6148,109.714 37,109.5C 36.6913,107.609 37.5247,106.275 39.5,105.5C 38.1667,103.833 36.8333,102.167 35.5,100.5C 31.3976,102.227 30.0642,101.061 31.5,97C 32.7839,96.3162 33.9505,96.4829 35,97.5C 35.4455,94.3384 34.9455,91.3384 33.5,88.5 Z"/></g>
<g><path style="opacity:0.888" fill="#b2b9c9" d="M 80.5,88.5 C 82.9928,88.3291 84.8261,89.3291 86,91.5C 86.7466,94.9236 86.58,98.2569 85.5,101.5C 80.9061,98.4718 79.2395,94.1385 80.5,88.5 Z"/></g>
<g><path style="opacity:1" fill="#c48c88" d="M 73.5,82.5 C 74.1175,84.2292 75.1175,85.7292 76.5,87C 75.944,87.3826 75.6107,87.8826 75.5,88.5C 74.2652,88.7214 73.2652,89.3881 72.5,90.5C 69.502,86.485 69.002,86.8184 71,91.5C 71.6708,92.2524 72.5041,92.5858 73.5,92.5C 74.2309,94.5988 74.2309,96.5988 73.5,98.5C 70.8371,97.5236 68.5038,96.1903 66.5,94.5C 65.1402,92.1985 65.8068,90.5318 68.5,89.5C 67.8333,88.8333 67.1667,88.1667 66.5,87.5C 69.0149,86.8003 69.6816,85.4669 68.5,83.5C 70.0453,82.5481 71.712,82.2148 73.5,82.5 Z"/></g>
<g><path style="opacity:1" fill="#ccd0e4" d="M 75.5,88.5 C 76.4345,89.5676 76.7678,90.901 76.5,92.5C 75.5,92.5 74.5,92.5 73.5,92.5C 72.5041,92.5858 71.6708,92.2524 71,91.5C 69.002,86.8184 69.502,86.485 72.5,90.5C 73.2652,89.3881 74.2652,88.7214 75.5,88.5 Z"/></g>
<g><path style="opacity:0.951" fill="#b8bbc8" d="M 57.5,101.5 C 59.1288,102.625 60.6288,103.959 62,105.5C 64.525,111.229 68.025,116.229 72.5,120.5C 72.0766,121.265 71.7432,122.098 71.5,123C 72.9556,126.4 73.9556,129.9 74.5,133.5C 71.2528,133.585 68.4194,132.585 66,130.5C 64.8696,125.22 63.8696,119.887 63,114.5C 60.6028,110.376 58.7694,106.043 57.5,101.5 Z"/></g>
<g><path style="opacity:0.83" fill="#023c88" d="M 147.5,99.5 C 145.529,104.105 143.029,108.438 140,112.5C 138.989,113.337 137.822,113.67 136.5,113.5C 138.988,109.194 141.488,104.861 144,100.5C 145.011,99.6634 146.178,99.33 147.5,99.5 Z"/></g>
<g><path style="opacity:0.69" fill="#2a86f9" d="M 147.5,99.5 C 148.376,99.3691 149.043,99.7025 149.5,100.5C 146.81,105.221 144.143,109.888 141.5,114.5C 134.803,115.798 128.136,115.798 121.5,114.5C 126.305,113.513 131.305,113.179 136.5,113.5C 137.822,113.67 138.989,113.337 140,112.5C 143.029,108.438 145.529,104.105 147.5,99.5 Z"/></g>
<g><path style="opacity:0.977" fill="#023b84" d="M 118.5,114.5 C 119.08,116.749 120.413,118.415 122.5,119.5C 126.892,125.228 130.892,131.228 134.5,137.5C 133.612,140.987 131.279,142.32 127.5,141.5C 124.527,137.86 121.194,134.527 117.5,131.5C 117.5,130.833 117.167,130.5 116.5,130.5C 115.495,132.704 115.162,135.704 115.5,139.5C 114.997,144.859 114.33,150.193 113.5,155.5C 112.374,156.714 111.041,157.714 109.5,158.5C 107.962,158.547 106.962,157.88 106.5,156.5C 105.276,147.928 104.61,139.261 104.5,130.5C 102.5,130.5 100.5,130.5 98.5,130.5C 95.272,129.586 91.9387,129.253 88.5,129.5C 89.0081,126.824 89.1747,124.157 89,121.5C 87.3005,120.594 85.4672,120.261 83.5,120.5C 87.5366,118.162 91.5366,115.828 95.5,113.5C 100.975,112.439 106.475,111.439 112,110.5C 115.087,110.434 117.254,111.768 118.5,114.5 Z"/></g>
<g><path style="opacity:0.846" fill="#d1d2da" d="M 118.5,114.5 C 119.5,114.5 120.5,114.5 121.5,114.5C 128.136,115.798 134.803,115.798 141.5,114.5C 162.833,114.5 184.167,114.5 205.5,114.5C 205.5,116.167 205.5,117.833 205.5,119.5C 202.5,119.5 199.5,119.5 196.5,119.5C 196.643,121.262 196.309,122.929 195.5,124.5C 198.761,136.378 202.094,148.212 205.5,160C 204.464,161.617 203.297,161.784 202,160.5C 199,149.167 196,137.833 193,126.5C 191.521,130.417 190.354,134.417 189.5,138.5C 188.5,138.5 187.5,138.5 186.5,138.5C 188.299,132.302 189.299,125.969 189.5,119.5C 167.167,119.5 144.833,119.5 122.5,119.5C 120.413,118.415 119.08,116.749 118.5,114.5 Z"/></g>
<g><path style="opacity:1" fill="#8c92a5" d="M 72.5,120.5 C 76.1667,120.5 79.8333,120.5 83.5,120.5C 85.4672,120.261 87.3005,120.594 89,121.5C 89.1747,124.157 89.0081,126.824 88.5,129.5C 87.5655,130.568 87.2322,131.901 87.5,133.5C 86.8333,133.5 86.1667,133.5 85.5,133.5C 85.4326,132.041 85.7659,130.708 86.5,129.5C 86.6646,127.173 87.3313,125.007 88.5,123C 86.4062,121.648 84.0728,121.148 81.5,121.5C 79.2646,121.205 77.2646,121.539 75.5,122.5C 74.1054,120.946 73.4387,121.279 73.5,123.5C 74.519,126.86 75.519,130.193 76.5,133.5C 75.8333,133.5 75.1667,133.5 74.5,133.5C 73.9556,129.9 72.9556,126.4 71.5,123C 71.7432,122.098 72.0766,121.265 72.5,120.5 Z"/></g>
<g><path style="opacity:1" fill="#2d87f9" d="M 75.5,122.5 C 77.2646,121.539 79.2646,121.205 81.5,121.5C 80.8333,122.833 80.1667,124.167 79.5,125.5C 78.1667,124.5 76.8333,123.5 75.5,122.5 Z"/></g>
<g><path style="opacity:1" fill="#0c4188" d="M 81.5,121.5 C 84.0728,121.148 86.4062,121.648 88.5,123C 87.3313,125.007 86.6646,127.173 86.5,129.5C 84.396,129.799 82.396,129.466 80.5,128.5C 79.8728,127.583 79.5394,126.583 79.5,125.5C 80.1667,124.167 80.8333,122.833 81.5,121.5 Z"/></g>
<g><path style="opacity:0.995" fill="#babec6" d="M 88.5,129.5 C 91.9387,129.253 95.272,129.586 98.5,130.5C 98.5858,131.496 98.2524,132.329 97.5,133C 94.1832,133.498 90.8499,133.665 87.5,133.5C 87.2322,131.901 87.5655,130.568 88.5,129.5 Z"/></g>
<g><path style="opacity:0.936" fill="#c7cad2" d="M 75.5,122.5 C 76.8333,123.5 78.1667,124.5 79.5,125.5C 79.5394,126.583 79.8728,127.583 80.5,128.5C 82.396,129.466 84.396,129.799 86.5,129.5C 85.7659,130.708 85.4326,132.041 85.5,133.5C 84.5,133.5 83.5,133.5 82.5,133.5C 82.5,139.167 82.5,144.833 82.5,150.5C 81.5,150.5 80.5,150.5 79.5,150.5C 79.5,144.833 79.5,139.167 79.5,133.5C 78.5,133.5 77.5,133.5 76.5,133.5C 75.519,130.193 74.519,126.86 73.5,123.5C 73.4387,121.279 74.1054,120.946 75.5,122.5 Z"/></g>
<g><path style="opacity:0.738" fill="#cfd0d9" d="M 116.5,130.5 C 117.167,130.5 117.5,130.833 117.5,131.5C 119.675,141.202 122.009,150.869 124.5,160.5C 123.391,160.557 122.391,160.89 121.5,161.5C 121.5,160.833 121.5,160.167 121.5,159.5C 119.483,152.75 117.483,146.083 115.5,139.5C 115.162,135.704 115.495,132.704 116.5,130.5 Z"/></g>
<g><path style="opacity:0.925" fill="#2483f8" d="M 134.5,137.5 C 137.764,138.324 141.098,138.658 144.5,138.5C 144.415,140.929 143.415,142.929 141.5,144.5C 137.405,146.72 133.072,148.053 128.5,148.5C 128.007,146.194 127.674,143.861 127.5,141.5C 131.279,142.32 133.612,140.987 134.5,137.5 Z"/></g>
<g><path style="opacity:0.996" fill="#f2f3f5" d="M 186.5,138.5 C 187.5,138.5 188.5,138.5 189.5,138.5C 190.5,138.5 191.5,138.5 192.5,138.5C 192.5,146.167 192.5,153.833 192.5,161.5C 182.167,161.5 171.833,161.5 161.5,161.5C 161.5,153.833 161.5,146.167 161.5,138.5C 165.198,138.448 168.865,138.114 172.5,137.5C 173.466,132.617 176.299,131.283 181,133.5C 181.49,134.793 181.657,136.127 181.5,137.5C 183.292,137.366 184.958,137.699 186.5,138.5 Z M 175.5,134.5 C 178.5,134.167 179.833,135.5 179.5,138.5C 177.833,138.5 176.167,138.5 174.5,138.5C 174.433,137.041 174.766,135.708 175.5,134.5 Z"/></g>
<g><path style="opacity:0.748" fill="#8c8fa1" d="M 79.5,150.5 C 80.5,150.5 81.5,150.5 82.5,150.5C 89.2874,150.353 95.954,151.187 102.5,153C 103.435,155.381 103.768,157.881 103.5,160.5C 102.167,160.5 100.833,160.5 99.5,160.5C 98.2431,158.632 98.5764,156.965 100.5,155.5C 98.6587,154.77 96.8254,154.103 95,153.5C 94.5034,155.81 94.3367,158.143 94.5,160.5C 93.1667,160.5 91.8333,160.5 90.5,160.5C 89.0484,158.226 89.715,156.726 92.5,156C 88.433,153.358 83.933,152.191 79,152.5C 72.8756,152.546 67.0423,153.713 61.5,156C 62.9733,156.71 63.6399,157.876 63.5,159.5C 61.9582,160.301 60.2915,160.634 58.5,160.5C 58.4661,157.801 59.1328,155.301 60.5,153C 66.697,151.114 73.0304,150.28 79.5,150.5 Z M 90.5,160.5 C 81.3178,160.827 72.3178,160.493 63.5,159.5C 63.6399,157.876 62.9733,156.71 61.5,156C 67.0423,153.713 72.8756,152.546 79,152.5C 83.933,152.191 88.433,153.358 92.5,156C 89.715,156.726 89.0484,158.226 90.5,160.5 Z M 99.5,160.5 C 97.8333,160.5 96.1667,160.5 94.5,160.5C 94.3367,158.143 94.5034,155.81 95,153.5C 96.8254,154.103 98.6587,154.77 100.5,155.5C 98.5764,156.965 98.2431,158.632 99.5,160.5 Z"/></g>
<g><path style="opacity:0.908" fill="#2985f9" d="M 113.5,155.5 C 115.277,158.389 117.944,159.722 121.5,159.5C 121.5,160.167 121.5,160.833 121.5,161.5C 120.942,162.79 119.942,163.623 118.5,164C 114.167,164.667 109.833,164.667 105.5,164C 104.663,162.989 104.33,161.822 104.5,160.5C 104.66,158.847 105.326,157.514 106.5,156.5C 106.962,157.88 107.962,158.547 109.5,158.5C 111.041,157.714 112.374,156.714 113.5,155.5 Z"/></g>
<g><path style="opacity:0.896" fill="#eeeff1" d="M 63.5,159.5 C 72.3178,160.493 81.3178,160.827 90.5,160.5C 91.8333,160.5 93.1667,160.5 94.5,160.5C 96.1667,160.5 97.8333,160.5 99.5,160.5C 100.833,160.5 102.167,160.5 103.5,160.5C 103.833,160.5 104.167,160.5 104.5,160.5C 104.33,161.822 104.663,162.989 105.5,164C 109.833,164.667 114.167,164.667 118.5,164C 119.942,163.623 120.942,162.79 121.5,161.5C 122.391,160.89 123.391,160.557 124.5,160.5C 128.884,160.174 133.217,160.508 137.5,161.5C 136.872,163.258 135.872,164.758 134.5,166C 107.167,166.667 79.8333,166.667 52.5,166C 51.1279,164.758 50.1279,163.258 49.5,161.5C 52.4281,160.516 55.4281,160.183 58.5,160.5C 60.2915,160.634 61.9582,160.301 63.5,159.5 Z"/></g>
</svg>
