<?xml version="1.0" encoding="UTF-8"?>
<!DOCTYPE svg PUBLIC "-//W3C//DTD SVG 1.1//EN" "http://www.w3.org/Graphics/SVG/1.1/DTD/svg11.dtd">
<svg xmlns="http://www.w3.org/2000/svg" version="1.1" width="256px" height="205px" style="shape-rendering:geometricPrecision; text-rendering:geometricPrecision; image-rendering:optimizeQuality; fill-rule:evenodd; clip-rule:evenodd" xmlns:xlink="http://www.w3.org/1999/xlink">
<g><path style="opacity:0.999" fill="#f2f3f3" d="M 92.5,17.5 C 92.5,40.8333 92.5,64.1667 92.5,87.5C 89.9017,85.2283 86.9017,83.8949 83.5,83.5C 78.5607,84.6519 73.5607,85.3186 68.5,85.5C 66.0679,78.2868 63.9012,70.9534 62,63.5C 61.2917,62.6195 60.4584,61.9528 59.5,61.5C 58.1667,60.8333 56.8333,60.1667 55.5,59.5C 55.5,58.1667 56.1667,57.5 57.5,57.5C 58.5,57.5 59.5,57.5 60.5,57.5C 60.5,56.5 60.5,55.5 60.5,54.5C 61.6651,53.5039 62.3318,52.1705 62.5,50.5C 61.9537,48.8653 61.6204,47.1986 61.5,45.5C 63.2932,42.0529 62.2932,39.5529 58.5,38C 46.5142,36.3889 42.3476,41.5555 46,53.5C 47.3024,54.0848 48.469,54.7515 49.5,55.5C 48.8902,56.391 48.5569,57.391 48.5,58.5C 46.3888,57.2584 44.3888,57.2584 42.5,58.5C 39.5282,60.5392 36.8615,63.0392 34.5,66C 32.9221,67.0945 31.2554,67.9278 29.5,68.5C 29.5,64.5 29.5,60.5 29.5,56.5C 29.472,54.4176 30.1387,52.5843 31.5,51C 30.9056,50.5357 30.2389,50.369 29.5,50.5C 29.5,39.5 29.5,28.5 29.5,17.5C 50.5,17.5 71.5,17.5 92.5,17.5 Z"/></g>
<g><path style="opacity:0.997" fill="#f4f5f6" d="M 92.5,17.5 C 102.167,17.5 111.833,17.5 121.5,17.5C 115.013,18.3283 108.346,18.8283 101.5,19C 104.328,21.2481 107.328,23.2481 110.5,25C 128.671,25.1683 146.671,25.6683 164.5,26.5C 145.167,26.5 125.833,26.5 106.5,26.5C 106.5,41.5 106.5,56.5 106.5,71.5C 104.167,71.5 101.833,71.5 99.5,71.5C 99.3335,83.1714 99.5001,94.8381 100,106.5C 104.322,109.399 108.489,112.399 112.5,115.5C 109.167,115.5 105.833,115.5 102.5,115.5C 102.5,116.5 102.5,117.5 102.5,118.5C 105.977,119.323 109.644,119.823 113.5,120C 111.87,126.376 109.87,132.543 107.5,138.5C 90.8333,138.5 74.1667,138.5 57.5,138.5C 57.8333,137.167 58.1667,135.833 58.5,134.5C 60.6858,124.93 63.0192,115.263 65.5,105.5C 65.4573,104.584 65.1239,103.917 64.5,103.5C 64.5,99.5 64.5,95.5 64.5,91.5C 70.8083,91.621 76.8083,90.2877 82.5,87.5C 86.0657,90.224 90.0657,91.3907 94.5,91C 93.0267,90.2904 92.3601,89.1238 92.5,87.5C 92.5,64.1667 92.5,40.8333 92.5,17.5 Z"/></g>
<g><path style="opacity:0.997" fill="#f6f6f6" d="M 121.5,17.5 C 157.5,17.5 193.5,17.5 229.5,17.5C 229.5,25.1667 229.5,32.8333 229.5,40.5C 212.833,40.5 196.167,40.5 179.5,40.5C 179.5,50.5 179.5,60.5 179.5,70.5C 175.721,68.4378 172.054,66.1045 168.5,63.5C 167.502,72.8096 167.168,82.1429 167.5,91.5C 165.167,91.5 162.833,91.5 160.5,91.5C 160.5,89.8333 160.5,88.1667 160.5,86.5C 161.833,86.5 163.167,86.5 164.5,86.5C 164.5,66.5 164.5,46.5 164.5,26.5C 146.671,25.6683 128.671,25.1683 110.5,25C 107.328,23.2481 104.328,21.2481 101.5,19C 108.346,18.8283 115.013,18.3283 121.5,17.5 Z"/></g>
<g><path style="opacity:1" fill="#abc8ef" d="M 164.5,26.5 C 164.5,46.5 164.5,66.5 164.5,86.5C 163.167,86.5 161.833,86.5 160.5,86.5C 142.5,86.5 124.5,86.5 106.5,86.5C 106.5,81.5 106.5,76.5 106.5,71.5C 106.5,56.5 106.5,41.5 106.5,26.5C 125.833,26.5 145.167,26.5 164.5,26.5 Z"/></g>
<g><path style="opacity:1" fill="#0c2b56" d="M 143.5,29.5 C 144.508,31.3386 146.008,32.6719 148,33.5C 147.919,37.241 148.085,40.9077 148.5,44.5C 148.339,48.9923 146.006,50.9923 141.5,50.5C 141.104,47.5178 141.771,44.8511 143.5,42.5C 142.873,41.5832 142.539,40.5832 142.5,39.5C 142.715,37.8212 142.048,36.8212 140.5,36.5C 139.059,34.6301 137.393,32.9634 135.5,31.5C 132.996,32.1505 131.663,33.8171 131.5,36.5C 131.5,36.8333 131.5,37.1667 131.5,37.5C 131.167,37.5 130.833,37.5 130.5,37.5C 130.298,35.0504 130.631,32.717 131.5,30.5C 135.246,28.2015 139.246,27.8681 143.5,29.5 Z"/></g>
<g><path style="opacity:1" fill="#bdd8fc" d="M 131.5,30.5 C 130.631,32.717 130.298,35.0504 130.5,37.5C 130.5,38.8333 130.5,40.1667 130.5,41.5C 130.283,44.4206 130.949,47.0872 132.5,49.5C 131.5,49.5 130.5,49.5 129.5,49.5C 124.07,47.8774 120.404,49.8774 118.5,55.5C 115.921,50.3672 116.254,45.3672 119.5,40.5C 119.333,40.1667 119.167,39.8333 119,39.5C 118.311,40.3567 117.478,41.0233 116.5,41.5C 115.439,38.3785 114.106,35.3785 112.5,32.5C 111.478,32.8555 110.811,33.5222 110.5,34.5C 109.549,33.0813 109.216,31.4147 109.5,29.5C 117.019,29.175 124.352,29.5084 131.5,30.5 Z"/></g>
<g><path style="opacity:1" fill="#bbd8fd" d="M 143.5,29.5 C 149.5,29.5 155.5,29.5 161.5,29.5C 161.5,47.5 161.5,65.5 161.5,83.5C 160.167,83.5 158.833,83.5 157.5,83.5C 157.5,82.8333 157.5,82.1667 157.5,81.5C 156.493,71.9698 154.159,62.8031 150.5,54C 148.975,52.9914 147.308,52.4914 145.5,52.5C 144.041,52.5674 142.708,52.2341 141.5,51.5C 141.5,51.1667 141.5,50.8333 141.5,50.5C 146.006,50.9923 148.339,48.9923 148.5,44.5C 148.085,40.9077 147.919,37.241 148,33.5C 146.008,32.6719 144.508,31.3386 143.5,29.5 Z"/></g>
<g><path style="opacity:1" fill="#90604c" d="M 140.5,36.5 C 137.5,36.5 134.5,36.5 131.5,36.5C 131.663,33.8171 132.996,32.1505 135.5,31.5C 137.393,32.9634 139.059,34.6301 140.5,36.5 Z"/></g>
<g><path style="opacity:1" fill="#9b6a55" d="M 118.5,55.5 C 119.021,59.4809 119.354,63.4809 119.5,67.5C 117.718,69.6869 115.552,70.0203 113,68.5C 111.943,60.5359 111.277,52.5359 111,44.5C 108.053,41.2167 107.887,37.8834 110.5,34.5C 110.811,33.5222 111.478,32.8555 112.5,32.5C 114.106,35.3785 115.439,38.3785 116.5,41.5C 117.478,41.0233 118.311,40.3567 119,39.5C 119.167,39.8333 119.333,40.1667 119.5,40.5C 116.254,45.3672 115.921,50.3672 118.5,55.5 Z"/></g>
<g><path style="opacity:1" fill="#9698af" d="M 131.5,37.5 C 131.5,37.1667 131.5,36.8333 131.5,36.5C 134.5,36.5 137.5,36.5 140.5,36.5C 142.048,36.8212 142.715,37.8212 142.5,39.5C 140.643,36.9824 138.81,36.9824 137,39.5C 135.667,36.8333 134.333,36.8333 133,39.5C 132.722,38.5842 132.222,37.9175 131.5,37.5 Z"/></g>
<g><path style="opacity:1" fill="#0c2b56" d="M 61.5,45.5 C 60.5233,48.2869 60.19,51.2869 60.5,54.5C 60.5,55.5 60.5,56.5 60.5,57.5C 59.5,57.5 58.5,57.5 57.5,57.5C 55.0392,56.469 52.3725,55.8023 49.5,55.5C 48.469,54.7515 47.3024,54.0848 46,53.5C 42.3476,41.5555 46.5142,36.3889 58.5,38C 62.2932,39.5529 63.2932,42.0529 61.5,45.5 Z"/></g>
<g><path style="opacity:1" fill="#976651" d="M 130.5,37.5 C 130.833,37.5 131.167,37.5 131.5,37.5C 132.222,37.9175 132.722,38.5842 133,39.5C 134.333,36.8333 135.667,36.8333 137,39.5C 138.81,36.9824 140.643,36.9824 142.5,39.5C 142.539,40.5832 142.873,41.5832 143.5,42.5C 141.771,44.8511 141.104,47.5178 141.5,50.5C 141.5,50.8333 141.5,51.1667 141.5,51.5C 140.431,53.9687 139.098,56.3021 137.5,58.5C 135.882,55.6005 134.549,52.6005 133.5,49.5C 133.977,46.0825 132.977,43.4159 130.5,41.5C 130.5,40.1667 130.5,38.8333 130.5,37.5 Z"/></g>
<g><path style="opacity:0.98" fill="#abc6ec" d="M 229.5,40.5 C 233.167,40.5 236.833,40.5 240.5,40.5C 240.5,60.8333 240.5,81.1667 240.5,101.5C 236.833,101.5 233.167,101.5 229.5,101.5C 212.833,101.5 196.167,101.5 179.5,101.5C 179.5,99.1667 179.5,96.8333 179.5,94.5C 185.583,98.8218 191.249,98.4885 196.5,93.5C 197.219,95.0913 198.219,96.5913 199.5,98C 208.827,98.4998 218.161,98.6665 227.5,98.5C 227.179,93.3054 227.513,88.3054 228.5,83.5C 228.5,88.5 228.5,93.5 228.5,98.5C 231.167,98.5 233.833,98.5 236.5,98.5C 236.5,80.5 236.5,62.5 236.5,44.5C 232.167,44.5 227.833,44.5 223.5,44.5C 223.813,48.0419 223.479,51.3752 222.5,54.5C 225.517,44.0274 221.85,39.8607 211.5,42C 209.416,42.6972 207.749,43.8639 206.5,45.5C 198.684,44.5076 190.684,44.1743 182.5,44.5C 182.5,60.5 182.5,76.5 182.5,92.5C 181.609,93.1098 180.609,93.4431 179.5,93.5C 179.5,85.8333 179.5,78.1667 179.5,70.5C 179.5,60.5 179.5,50.5 179.5,40.5C 196.167,40.5 212.833,40.5 229.5,40.5 Z"/></g>
<g><path style="opacity:1" fill="#152d55" d="M 130.5,41.5 C 132.977,43.4159 133.977,46.0825 133.5,49.5C 133.167,49.5 132.833,49.5 132.5,49.5C 130.949,47.0872 130.283,44.4206 130.5,41.5 Z"/></g>
<g><path style="opacity:1" fill="#122d56" d="M 222.5,54.5 C 221.508,54.3284 220.842,54.6618 220.5,55.5C 217.385,55.3939 214.719,56.3939 212.5,58.5C 210.883,59.038 209.216,59.3713 207.5,59.5C 207.36,57.8762 208.027,56.7096 209.5,56C 208.584,55.7216 207.918,55.2216 207.5,54.5C 212.049,56.3017 214.049,54.635 213.5,49.5C 210.234,49.5674 208.734,47.9008 209,44.5C 208.098,46.9269 207.264,49.2603 206.5,51.5C 205.359,49.5487 205.359,47.5487 206.5,45.5C 207.749,43.8639 209.416,42.6972 211.5,42C 221.85,39.8607 225.517,44.0274 222.5,54.5 Z"/></g>
<g><path style="opacity:1" fill="#bcd9fd" d="M 206.5,45.5 C 205.359,47.5487 205.359,49.5487 206.5,51.5C 206.557,52.609 206.89,53.609 207.5,54.5C 207.918,55.2216 208.584,55.7216 209.5,56C 208.027,56.7096 207.36,57.8762 207.5,59.5C 209.216,59.3713 210.883,59.038 212.5,58.5C 212.5,59.8333 212.5,61.1667 212.5,62.5C 209.421,62.8042 206.587,63.8042 204,65.5C 201.693,73.0604 199.86,80.7271 198.5,88.5C 197.209,88.2627 196.209,88.596 195.5,89.5C 192.134,89.2122 188.8,89.0455 185.5,89C 186.328,89.9147 187.328,90.5814 188.5,91C 186.564,91.813 184.564,92.313 182.5,92.5C 182.5,76.5 182.5,60.5 182.5,44.5C 190.684,44.1743 198.684,44.5076 206.5,45.5 Z"/></g>
<g><path style="opacity:1" fill="#bad8fd" d="M 228.5,83.5 C 231.223,76.0638 232.056,68.3971 231,60.5C 227.609,58.1269 224.109,58.1269 220.5,60.5C 220.5,58.8333 220.5,57.1667 220.5,55.5C 220.842,54.6618 221.508,54.3284 222.5,54.5C 223.479,51.3752 223.813,48.0419 223.5,44.5C 227.833,44.5 232.167,44.5 236.5,44.5C 236.5,62.5 236.5,80.5 236.5,98.5C 233.833,98.5 231.167,98.5 228.5,98.5C 228.5,93.5 228.5,88.5 228.5,83.5 Z"/></g>
<g><path style="opacity:1" fill="#846963" d="M 61.5,45.5 C 61.6204,47.1986 61.9537,48.8653 62.5,50.5C 62.3318,52.1705 61.6651,53.5039 60.5,54.5C 60.19,51.2869 60.5233,48.2869 61.5,45.5 Z"/></g>
<g><path style="opacity:0.828" fill="#97644f" d="M 29.5,50.5 C 30.2389,50.369 30.9056,50.5357 31.5,51C 30.1387,52.5843 29.472,54.4176 29.5,56.5C 28.5166,60.2984 28.1832,64.2984 28.5,68.5C 26.6527,70.6242 24.986,72.9576 23.5,75.5C 23.7189,77.9153 25.0523,78.9153 27.5,78.5C 26.0813,79.4511 24.4147,79.7845 22.5,79.5C 21.8535,67.3186 23.1868,55.3186 26.5,43.5C 26.9416,46.7889 27.9416,49.1222 29.5,50.5 Z"/></g>
<g><path style="opacity:1" fill="#94c3fe" d="M 129.5,49.5 C 131.883,55.9358 134.55,62.2691 137.5,68.5C 140.164,63.1712 142.831,57.8379 145.5,52.5C 147.308,52.4914 148.975,52.9914 150.5,54C 154.159,62.8031 156.493,71.9698 157.5,81.5C 154.596,80.5849 151.596,79.9183 148.5,79.5C 142.217,80.8905 135.883,81.8905 129.5,82.5C 127.833,82.5 126.167,82.5 124.5,82.5C 124.71,75.7783 124.21,69.1117 123,62.5C 122.303,64.5844 121.136,66.2511 119.5,67.5C 119.354,63.4809 119.021,59.4809 118.5,55.5C 120.404,49.8774 124.07,47.8774 129.5,49.5 Z"/></g>
<g><path style="opacity:1" fill="#f7f8fa" d="M 129.5,49.5 C 130.5,49.5 131.5,49.5 132.5,49.5C 132.833,49.5 133.167,49.5 133.5,49.5C 134.549,52.6005 135.882,55.6005 137.5,58.5C 139.098,56.3021 140.431,53.9687 141.5,51.5C 142.708,52.2341 144.041,52.5674 145.5,52.5C 142.831,57.8379 140.164,63.1712 137.5,68.5C 134.55,62.2691 131.883,55.9358 129.5,49.5 Z"/></g>
<g><path style="opacity:1" fill="#dc8d6d" d="M 207.5,54.5 C 206.89,53.609 206.557,52.609 206.5,51.5C 207.264,49.2603 208.098,46.9269 209,44.5C 208.734,47.9008 210.234,49.5674 213.5,49.5C 214.049,54.635 212.049,56.3017 207.5,54.5 Z"/></g>
<g><path style="opacity:1" fill="#c68369" d="M 215.5,48.5 C 218.063,49.9979 218.063,51.6646 215.5,53.5C 214.334,51.8327 214.334,50.166 215.5,48.5 Z"/></g>
<g><path style="opacity:1" fill="#976957" d="M 49.5,55.5 C 52.3725,55.8023 55.0392,56.469 57.5,57.5C 56.1667,57.5 55.5,58.1667 55.5,59.5C 53.0971,59.552 50.7638,59.2186 48.5,58.5C 48.5569,57.391 48.8902,56.391 49.5,55.5 Z"/></g>
<g><path style="opacity:1" fill="#e7936f" d="M 220.5,55.5 C 220.5,57.1667 220.5,58.8333 220.5,60.5C 217.87,62.6281 215.37,64.9614 213,67.5C 212.506,65.8659 212.34,64.1992 212.5,62.5C 212.5,61.1667 212.5,59.8333 212.5,58.5C 214.719,56.3939 217.385,55.3939 220.5,55.5 Z"/></g>
<g><path style="opacity:1" fill="#096fe9" d="M 228.5,83.5 C 227.513,88.3054 227.179,93.3054 227.5,98.5C 218.161,98.6665 208.827,98.4998 199.5,98C 198.219,96.5913 197.219,95.0913 196.5,93.5C 196.167,92.1667 195.833,90.8333 195.5,89.5C 196.209,88.596 197.209,88.2627 198.5,88.5C 199.86,80.7271 201.693,73.0604 204,65.5C 206.587,63.8042 209.421,62.8042 212.5,62.5C 212.34,64.1992 212.506,65.8659 213,67.5C 215.37,64.9614 217.87,62.6281 220.5,60.5C 224.109,58.1269 227.609,58.1269 231,60.5C 232.056,68.3971 231.223,76.0638 228.5,83.5 Z"/></g>
<g><path style="opacity:1" fill="#4395fd" d="M 42.5,58.5 C 44.3888,57.2584 46.3888,57.2584 48.5,58.5C 50.7638,59.2186 53.0971,59.552 55.5,59.5C 56.8333,60.1667 58.1667,60.8333 59.5,61.5C 54.5481,65.2786 49.7148,69.2786 45,73.5C 42.5408,70.7552 40.7074,67.5885 39.5,64C 41.0319,61.8829 43.0319,60.2162 45.5,59C 44.552,58.5172 43.552,58.3505 42.5,58.5 Z"/></g>
<g><path style="opacity:1" fill="#0b6fe9" d="M 42.5,58.5 C 43.552,58.3505 44.552,58.5172 45.5,59C 43.0319,60.2162 41.0319,61.8829 39.5,64C 40.7074,67.5885 42.5408,70.7552 45,73.5C 49.7148,69.2786 54.5481,65.2786 59.5,61.5C 60.4584,61.9528 61.2917,62.6195 62,63.5C 63.9012,70.9534 66.0679,78.2868 68.5,85.5C 67.0858,87.0542 65.4192,88.3875 63.5,89.5C 63.8627,90.1835 64.1961,90.8501 64.5,91.5C 64.5,95.5 64.5,99.5 64.5,103.5C 64.5,104.5 64.5,105.5 64.5,106.5C 56.8333,106.5 49.1667,106.5 41.5,106.5C 41.6205,100.775 42.2872,95.1085 43.5,89.5C 42.903,83.0542 41.7364,76.7209 40,70.5C 36.8333,72.3333 33.6667,74.1667 30.5,76C 29.7476,76.6708 29.4142,77.5041 29.5,78.5C 28.8333,78.5 28.1667,78.5 27.5,78.5C 25.0523,78.9153 23.7189,77.9153 23.5,75.5C 24.986,72.9576 26.6527,70.6242 28.5,68.5C 28.8333,68.5 29.1667,68.5 29.5,68.5C 31.2554,67.9278 32.9221,67.0945 34.5,66C 36.8615,63.0392 39.5282,60.5392 42.5,58.5 Z"/></g>
<g><path style="opacity:1" fill="#e8e9ed" d="M 106.5,71.5 C 106.5,76.5 106.5,81.5 106.5,86.5C 124.5,86.5 142.5,86.5 160.5,86.5C 160.5,88.1667 160.5,89.8333 160.5,91.5C 155.456,91.1725 150.456,91.5059 145.5,92.5C 142.761,99.0513 140.428,105.718 138.5,112.5C 131.5,112.5 124.5,112.5 117.5,112.5C 117.5,113.5 117.5,114.5 117.5,115.5C 115.833,115.5 114.167,115.5 112.5,115.5C 108.489,112.399 104.322,109.399 100,106.5C 99.5001,94.8381 99.3335,83.1714 99.5,71.5C 101.833,71.5 104.167,71.5 106.5,71.5 Z"/></g>
<g><path style="opacity:0.995" fill="#f1f3f5" d="M 41.5,106.5 C 41.5,115.833 41.5,125.167 41.5,134.5C 41.7709,136.38 41.1042,137.713 39.5,138.5C 36.1667,138.5 32.8333,138.5 29.5,138.5C 29.5,118.5 29.5,98.5 29.5,78.5C 29.4142,77.5041 29.7476,76.6708 30.5,76C 33.6667,74.1667 36.8333,72.3333 40,70.5C 41.7364,76.7209 42.903,83.0542 43.5,89.5C 42.2872,95.1085 41.6205,100.775 41.5,106.5 Z"/></g>
<g><path style="opacity:1" fill="#9a6d5c" d="M 157.5,81.5 C 157.5,82.1667 157.5,82.8333 157.5,83.5C 147.985,83.8269 138.652,83.4936 129.5,82.5C 135.883,81.8905 142.217,80.8905 148.5,79.5C 151.596,79.9183 154.596,80.5849 157.5,81.5 Z"/></g>
<g><path style="opacity:1" fill="#9e6c56" d="M 92.5,87.5 C 92.3601,89.1238 93.0267,90.2904 94.5,91C 90.0657,91.3907 86.0657,90.224 82.5,87.5C 76.8083,90.2877 70.8083,91.621 64.5,91.5C 64.1961,90.8501 63.8627,90.1835 63.5,89.5C 65.4192,88.3875 67.0858,87.0542 68.5,85.5C 73.5607,85.3186 78.5607,84.6519 83.5,83.5C 86.9017,83.8949 89.9017,85.2283 92.5,87.5 Z"/></g>
<g><path style="opacity:1" fill="#ea9977" d="M 195.5,89.5 C 195.833,90.8333 196.167,92.1667 196.5,93.5C 191.249,98.4885 185.583,98.8218 179.5,94.5C 179.5,94.1667 179.5,93.8333 179.5,93.5C 180.609,93.4431 181.609,93.1098 182.5,92.5C 184.564,92.313 186.564,91.813 188.5,91C 187.328,90.5814 186.328,89.9147 185.5,89C 188.8,89.0455 192.134,89.2122 195.5,89.5 Z"/></g>
<g><path style="opacity:1" fill="#eeeff1" d="M 179.5,70.5 C 179.5,78.1667 179.5,85.8333 179.5,93.5C 179.5,93.8333 179.5,94.1667 179.5,94.5C 179.5,96.8333 179.5,99.1667 179.5,101.5C 196.167,101.5 212.833,101.5 229.5,101.5C 229.829,114.011 229.495,126.345 228.5,138.5C 226.833,138.5 225.167,138.5 223.5,138.5C 220.167,138.5 216.833,138.5 213.5,138.5C 212.5,138.5 211.5,138.5 210.5,138.5C 210.167,138.5 209.833,138.5 209.5,138.5C 209.018,135.954 208.018,133.621 206.5,131.5C 206.001,134.217 204.835,136.551 203,138.5C 204.091,135.672 204.425,132.672 204,129.5C 202.989,128.663 201.822,128.33 200.5,128.5C 200.663,130.857 200.497,133.19 200,135.5C 199.311,132.102 197.645,129.435 195,127.5C 191.651,131.175 192.151,134.675 196.5,138C 195.5,138.667 194.5,138.667 193.5,138C 191.263,134.512 189.596,134.678 188.5,138.5C 185.833,138.5 183.167,138.5 180.5,138.5C 178.439,132.447 176.439,126.281 174.5,120C 178.356,119.823 182.023,119.323 185.5,118.5C 185.5,117.5 185.5,116.5 185.5,115.5C 178.833,115.5 172.167,115.5 165.5,115.5C 167.248,107.335 169.581,99.3351 172.5,91.5C 170.833,91.5 169.167,91.5 167.5,91.5C 167.168,82.1429 167.502,72.8096 168.5,63.5C 172.054,66.1045 175.721,68.4378 179.5,70.5 Z"/></g>
<g><path style="opacity:1" fill="#3e94fd" d="M 64.5,103.5 C 65.1239,103.917 65.4573,104.584 65.5,105.5C 63.0192,115.263 60.6858,124.93 58.5,134.5C 57.5041,134.586 56.6708,134.252 56,133.5C 55.6667,131.5 55.3333,129.5 55,127.5C 54.7638,129.764 54.2638,131.931 53.5,134C 49.5138,134.499 45.5138,134.666 41.5,134.5C 41.5,125.167 41.5,115.833 41.5,106.5C 49.1667,106.5 56.8333,106.5 64.5,106.5C 64.5,105.5 64.5,104.5 64.5,103.5 Z"/></g>
<g><path style="opacity:1" fill="#9dc8fe" d="M 160.5,91.5 C 162.833,91.5 165.167,91.5 167.5,91.5C 169.167,91.5 170.833,91.5 172.5,91.5C 169.581,99.3351 167.248,107.335 165.5,115.5C 165.167,115.5 164.833,115.5 164.5,115.5C 164.5,114.5 164.5,113.5 164.5,112.5C 157.833,112.5 151.167,112.5 144.5,112.5C 144.5,113.5 144.5,114.5 144.5,115.5C 135.5,115.5 126.5,115.5 117.5,115.5C 117.5,114.5 117.5,113.5 117.5,112.5C 124.5,112.5 131.5,112.5 138.5,112.5C 140.428,105.718 142.761,99.0513 145.5,92.5C 150.456,91.5059 155.456,91.1725 160.5,91.5 Z"/></g>
<g><path style="opacity:1" fill="#fefeff" d="M 146.5,93.5 C 154.507,93.3336 162.507,93.5003 170.5,94C 167.803,99.5906 165.803,105.424 164.5,111.5C 156.472,111.831 148.472,111.498 140.5,110.5C 142.905,104.949 144.905,99.2825 146.5,93.5 Z"/></g>
<g><path style="opacity:1" fill="#6bacfe" d="M 164.5,115.5 C 157.833,115.5 151.167,115.5 144.5,115.5C 144.5,114.5 144.5,113.5 144.5,112.5C 151.167,112.5 157.833,112.5 164.5,112.5C 164.5,113.5 164.5,114.5 164.5,115.5 Z"/></g>
<g><path style="opacity:1" fill="#013a84" d="M 112.5,115.5 C 114.167,115.5 115.833,115.5 117.5,115.5C 126.5,115.5 135.5,115.5 144.5,115.5C 151.167,115.5 157.833,115.5 164.5,115.5C 164.833,115.5 165.167,115.5 165.5,115.5C 172.167,115.5 178.833,115.5 185.5,115.5C 185.5,116.5 185.5,117.5 185.5,118.5C 157.833,118.5 130.167,118.5 102.5,118.5C 102.5,117.5 102.5,116.5 102.5,115.5C 105.833,115.5 109.167,115.5 112.5,115.5 Z"/></g>
<g><path style="opacity:0.889" fill="#83b3eb" d="M 102.5,118.5 C 130.167,118.5 157.833,118.5 185.5,118.5C 182.023,119.323 178.356,119.823 174.5,120C 176.439,126.281 178.439,132.447 180.5,138.5C 181.303,142.239 182.303,145.905 183.5,149.5C 181.836,151.679 182.17,153.512 184.5,155C 183.207,155.49 181.873,155.657 180.5,155.5C 179.325,149.799 177.992,144.133 176.5,138.5C 175.317,132.106 173.984,125.773 172.5,119.5C 153.5,119.5 134.5,119.5 115.5,119.5C 114.46,125.907 113.127,132.24 111.5,138.5C 107.109,155.51 102.609,172.51 98,189.5C 96.9887,190.337 95.8221,190.67 94.5,190.5C 98.5173,173.097 102.851,155.764 107.5,138.5C 109.87,132.543 111.87,126.376 113.5,120C 109.644,119.823 105.977,119.323 102.5,118.5 Z"/></g>
<g><path style="opacity:1" fill="#f1f2f4" d="M 176.5,138.5 C 154.833,138.5 133.167,138.5 111.5,138.5C 113.127,132.24 114.46,125.907 115.5,119.5C 134.5,119.5 153.5,119.5 172.5,119.5C 173.984,125.773 175.317,132.106 176.5,138.5 Z"/></g>
<g><path style="opacity:0.923" fill="#80b9fe" d="M 209.5,138.5 C 209.5,138.833 209.5,139.167 209.5,139.5C 210.167,139.5 210.5,139.167 210.5,138.5C 211.5,138.5 212.5,138.5 213.5,138.5C 214.341,140.379 214.675,142.379 214.5,144.5C 212.167,144.833 210.833,146.167 210.5,148.5C 209.167,148.833 209.167,149.167 210.5,149.5C 212.728,150.322 213.395,151.655 212.5,153.5C 211.167,152.5 209.833,151.5 208.5,150.5C 207.06,153.228 207.726,155.395 210.5,157C 209.451,157.492 208.451,157.326 207.5,156.5C 206.374,157.808 206.374,159.142 207.5,160.5C 208.062,163.546 208.729,166.546 209.5,169.5C 209.5,169.833 209.5,170.167 209.5,170.5C 208.5,170.5 207.5,170.5 206.5,170.5C 206.54,167.119 206.207,163.786 205.5,160.5C 205.27,156.771 203.27,154.938 199.5,155C 199.957,154.586 200.291,154.086 200.5,153.5C 199.078,152.453 197.578,152.453 196,153.5C 194.946,152.518 194.446,151.351 194.5,150C 193.251,149.26 192.251,149.427 191.5,150.5C 191.167,150.5 190.833,150.5 190.5,150.5C 187.829,148.653 186.829,145.986 187.5,142.5C 190.313,142.77 192.979,143.27 195.5,144C 192.734,142.629 190.401,140.796 188.5,138.5C 189.596,134.678 191.263,134.512 193.5,138C 194.5,138.667 195.5,138.667 196.5,138C 192.151,134.675 191.651,131.175 195,127.5C 197.645,129.435 199.311,132.102 200,135.5C 200.497,133.19 200.663,130.857 200.5,128.5C 201.822,128.33 202.989,128.663 204,129.5C 204.425,132.672 204.091,135.672 203,138.5C 204.835,136.551 206.001,134.217 206.5,131.5C 208.018,133.621 209.018,135.954 209.5,138.5 Z M 209.5,139.5 C 209.636,142.524 208.302,144.024 205.5,144C 207.07,142.603 208.404,141.103 209.5,139.5 Z"/></g>
<g><path style="opacity:0.972" fill="#98644d" d="M 58.5,134.5 C 58.1667,135.833 57.8333,137.167 57.5,138.5C 57.2242,152.21 54.8909,165.544 50.5,178.5C 48.4427,180.856 45.776,181.856 42.5,181.5C 42.701,175.807 42.8677,170.14 43,164.5C 41.3948,168.485 39.8948,172.485 38.5,176.5C 37.7387,177.391 36.7387,178.058 35.5,178.5C 33.5466,177.844 31.5466,177.511 29.5,177.5C 30.9488,168.867 32.4488,160.201 34,151.5C 36.3972,147.376 38.2306,143.043 39.5,138.5C 41.1042,137.713 41.7709,136.38 41.5,134.5C 45.5138,134.666 49.5138,134.499 53.5,134C 54.2638,131.931 54.7638,129.764 55,127.5C 55.3333,129.5 55.6667,131.5 56,133.5C 56.6708,134.252 57.5041,134.586 58.5,134.5 Z"/></g>
<g><path style="opacity:0.874" fill="#93c3ff" d="M 223.5,138.5 C 225.167,138.5 226.833,138.5 228.5,138.5C 228.5,139.833 228.5,141.167 228.5,142.5C 229.833,142.5 231.167,142.5 232.5,142.5C 234.757,147.493 233.757,151.493 229.5,154.5C 230.995,154.415 231.995,155.081 232.5,156.5C 231.582,158.839 229.916,160.339 227.5,161C 228.833,162.333 228.833,163.667 227.5,165C 225.101,165.711 222.768,165.544 220.5,164.5C 219.15,165.95 217.484,166.617 215.5,166.5C 215.649,165.448 215.483,164.448 215,163.5C 213.589,165.65 212.755,167.984 212.5,170.5C 211.5,170.5 210.5,170.5 209.5,170.5C 209.5,170.167 209.5,169.833 209.5,169.5C 210.391,167.709 211.391,165.876 212.5,164C 210.721,162.86 209.054,161.693 207.5,160.5C 206.374,159.142 206.374,157.808 207.5,156.5C 208.451,157.326 209.451,157.492 210.5,157C 207.726,155.395 207.06,153.228 208.5,150.5C 209.833,151.5 211.167,152.5 212.5,153.5C 213.395,151.655 212.728,150.322 210.5,149.5C 210.5,149.167 210.5,148.833 210.5,148.5C 210.833,146.167 212.167,144.833 214.5,144.5C 215.222,144.918 215.722,145.584 216,146.5C 216.333,144.833 216.667,143.167 217,141.5C 218.011,140.663 219.178,140.33 220.5,140.5C 220.34,142.199 220.506,143.866 221,145.5C 221.153,142.849 221.987,140.516 223.5,138.5 Z M 229.5,154.5 C 228.201,156.099 226.535,156.599 224.5,156C 225.905,154.731 227.571,154.231 229.5,154.5 Z"/></g>
<g><path style="opacity:0.923" fill="#bbd9fe" d="M 183.5,149.5 C 185.861,149.674 188.194,150.007 190.5,150.5C 190.833,151.833 191.167,151.833 191.5,150.5C 192.251,149.427 193.251,149.26 194.5,150C 194.446,151.351 194.946,152.518 196,153.5C 197.578,152.453 199.078,152.453 200.5,153.5C 200.291,154.086 199.957,154.586 199.5,155C 203.27,154.938 205.27,156.771 205.5,160.5C 204.624,160.369 203.957,160.702 203.5,161.5C 202.876,164.664 203.542,167.664 205.5,170.5C 204.5,170.5 203.5,170.5 202.5,170.5C 201.272,165.34 200.605,165.34 200.5,170.5C 199.5,170.833 198.833,171.5 198.5,172.5C 196.876,172.64 195.71,171.973 195,170.5C 195.266,173.901 193.766,175.567 190.5,175.5C 189.852,173.914 189.352,172.247 189,170.5C 188.56,172.866 188.06,175.199 187.5,177.5C 182.957,178.79 181.123,177.123 182,172.5C 180.989,173.337 179.822,173.67 178.5,173.5C 175.923,167.949 177.256,163.783 182.5,161C 181.207,160.51 179.873,160.343 178.5,160.5C 178.392,158.486 179.058,156.82 180.5,155.5C 181.873,155.657 183.207,155.49 184.5,155C 182.17,153.512 181.836,151.679 183.5,149.5 Z M 202.5,170.5 C 201.833,170.5 201.167,170.5 200.5,170.5C 200.605,165.34 201.272,165.34 202.5,170.5 Z"/></g>
<g><path style="opacity:0.919" fill="#2888ff" d="M 200.5,170.5 C 201.167,170.5 201.833,170.5 202.5,170.5C 203.5,170.5 204.5,170.5 205.5,170.5C 205.833,170.5 206.167,170.5 206.5,170.5C 207.5,170.5 208.5,170.5 209.5,170.5C 210.5,170.5 211.5,170.5 212.5,170.5C 214.948,170.01 216.615,170.843 217.5,173C 216.624,178.806 215.957,184.639 215.5,190.5C 210.5,190.5 205.5,190.5 200.5,190.5C 200.096,184.453 199.429,178.453 198.5,172.5C 198.833,171.5 199.5,170.833 200.5,170.5 Z"/></g>
<g><path style="opacity:0.926" fill="#80b7f4" d="M 190.5,175.5 C 191.975,180.4 192.975,185.4 193.5,190.5C 191.876,190.64 190.71,189.973 190,188.5C 188.69,184.93 187.857,181.263 187.5,177.5C 188.06,175.199 188.56,172.866 189,170.5C 189.352,172.247 189.852,173.914 190.5,175.5 Z"/></g>
<g><path style="opacity:0.91" fill="#89bcfd" d="M 38.5,176.5 C 38.0632,179.807 38.7298,182.807 40.5,185.5C 41.3624,184.234 42.0291,182.901 42.5,181.5C 45.776,181.856 48.4427,180.856 50.5,178.5C 51.3093,180.013 51.4759,181.68 51,183.5C 53.2658,184.956 55.7658,185.79 58.5,186C 60.0368,187.11 60.7035,188.61 60.5,190.5C 53.5,190.5 46.5,190.5 39.5,190.5C 36.3134,187.075 32.3134,185.741 27.5,186.5C 27.4045,183.308 28.0712,180.308 29.5,177.5C 31.5466,177.511 33.5466,177.844 35.5,178.5C 36.7387,178.058 37.7387,177.391 38.5,176.5 Z"/></g>
<g><path style="opacity:0.748" fill="#116feb" d="M 27.5,186.5 C 32.3134,185.741 36.3134,187.075 39.5,190.5C 34.6866,191.259 30.6866,189.925 27.5,186.5 Z"/></g>
</svg>
