<?xml version="1.0" encoding="UTF-8"?>
<!DOCTYPE svg PUBLIC "-//W3C//DTD SVG 1.1//EN" "http://www.w3.org/Graphics/SVG/1.1/DTD/svg11.dtd">
<svg xmlns="http://www.w3.org/2000/svg" version="1.1" width="256px" height="171px" style="shape-rendering:geometricPrecision; text-rendering:geometricPrecision; image-rendering:optimizeQuality; fill-rule:evenodd; clip-rule:evenodd" xmlns:xlink="http://www.w3.org/1999/xlink">
<g><path style="opacity:0.96" fill="#f2f3f3" d="M 62.5,13.5 C 62.6666,27.504 62.4999,41.504 62,55.5C 52.3333,49.1667 42.6667,42.8333 33,36.5C 32.2571,38.4406 32.4238,40.2739 33.5,42C 39.5901,45.4604 45.4234,49.2938 51,53.5C 51.6667,54.8333 51.6667,56.1667 51,57.5C 45.172,53.2519 39.172,49.2519 33,45.5C 32.2888,47.3668 32.7888,48.8668 34.5,50C 40,53.5 45.5,57 51,60.5C 51.4992,65.1548 51.6658,69.8215 51.5,74.5C 49.8333,74.5 48.1667,74.5 46.5,74.5C 44.4031,70.47 42.4031,66.3033 40.5,62C 37.5184,61.502 34.5184,61.3354 31.5,61.5C 31.5,45.5 31.5,29.5 31.5,13.5C 41.8333,13.5 52.1667,13.5 62.5,13.5 Z"/></g>
<g><path style="opacity:0.996" fill="#f6f6f7" d="M 62.5,13.5 C 85.5,13.5 108.5,13.5 131.5,13.5C 131.5,20.1667 131.5,26.8333 131.5,33.5C 124.04,33.2964 120.707,36.963 121.5,44.5C 119.977,46.5857 120.31,48.2524 122.5,49.5C 119.797,56.0965 121.797,60.0965 128.5,61.5C 127.041,61.4326 125.708,61.7659 124.5,62.5C 118.506,63.3132 114.173,66.3132 111.5,71.5C 107.818,71.3347 104.152,71.5014 100.5,72C 99.6266,73.045 98.6266,73.8783 97.5,74.5C 97.1667,74.5 96.8333,74.5 96.5,74.5C 96.8325,60.8171 96.4992,47.1504 95.5,33.5C 92.5,31.5 89.5,29.5 86.5,27.5C 85.8961,32.255 84.2294,36.5883 81.5,40.5C 80.1788,52.4274 79.5121,52.4274 79.5,40.5C 76.1667,40.5 72.8333,40.5 69.5,40.5C 69.5,38.8333 69.5,37.1667 69.5,35.5C 68.5,35.5 67.5,35.5 66.5,35.5C 65.3519,43.1666 65.3519,50.8332 66.5,58.5C 73.6376,63.1382 80.6376,67.9716 87.5,73C 85.1667,73.6667 82.8333,73.6667 80.5,73C 75.3963,70.2266 70.563,67.0599 66,63.5C 65.2195,64.9437 65.3861,66.277 66.5,67.5C 69.8998,69.8556 73.2331,72.1889 76.5,74.5C 68.1667,74.5 59.8333,74.5 51.5,74.5C 51.6658,69.8215 51.4992,65.1548 51,60.5C 45.5,57 40,53.5 34.5,50C 32.7888,48.8668 32.2888,47.3668 33,45.5C 39.172,49.2519 45.172,53.2519 51,57.5C 51.6667,56.1667 51.6667,54.8333 51,53.5C 45.4234,49.2938 39.5901,45.4604 33.5,42C 32.4238,40.2739 32.2571,38.4406 33,36.5C 42.6667,42.8333 52.3333,49.1667 62,55.5C 62.4999,41.504 62.6666,27.504 62.5,13.5 Z"/></g>
<g><path style="opacity:0.97" fill="#0b2955" d="M 193.5,32.5 C 193.167,32.5 192.833,32.5 192.5,32.5C 190.742,32.8769 189.075,33.5435 187.5,34.5C 186.914,34.2907 186.414,33.9574 186,33.5C 185.003,35.3231 183.836,36.9897 182.5,38.5C 181.71,39.4013 180.71,40.0679 179.5,40.5C 178.4,39.3951 177.733,38.0618 177.5,36.5C 177.932,35.2905 178.599,34.2905 179.5,33.5C 179.369,34.3764 179.702,35.0431 180.5,35.5C 182.261,34.9649 183.594,33.9649 184.5,32.5C 183.833,32.5 183.167,32.5 182.5,32.5C 182.167,31.1667 181.833,29.8333 181.5,28.5C 182.547,27.9222 182.38,27.2555 181,26.5C 180.329,27.2524 179.496,27.5858 178.5,27.5C 176.616,27.2882 175.283,26.2882 174.5,24.5C 174.151,28.182 172.151,30.182 168.5,30.5C 166.904,23.4579 169.57,19.4579 176.5,18.5C 178.189,17.0693 180.189,16.2359 182.5,16C 181.552,15.5172 180.552,15.3505 179.5,15.5C 181.055,14.3673 182.889,13.7006 185,13.5C 187.479,14.6867 189.979,14.6867 192.5,13.5C 195.815,14.3028 198.481,16.1361 200.5,19C 199.556,20.4768 198.223,21.4768 196.5,22C 197.428,22.3879 198.095,23.0546 198.5,24C 196.489,26.6784 194.823,29.5117 193.5,32.5 Z"/></g>
<g><path style="opacity:0.722" fill="#0058be" d="M 179.5,15.5 C 180.552,15.3505 181.552,15.5172 182.5,16C 180.189,16.2359 178.189,17.0693 176.5,18.5C 176.5,16.5 177.5,15.5 179.5,15.5 Z"/></g>
<g><path style="opacity:1" fill="#2175df" d="M 184.5,32.5 C 183.674,30.1121 183.674,27.4454 184.5,24.5C 188.461,22.9642 190.294,24.2975 190,28.5C 188.588,30.452 186.755,31.7853 184.5,32.5 Z"/></g>
<g><path style="opacity:1" fill="#edeef0" d="M 96.5,74.5 C 89.8333,74.5 83.1667,74.5 76.5,74.5C 73.2331,72.1889 69.8998,69.8556 66.5,67.5C 65.3861,66.277 65.2195,64.9437 66,63.5C 70.563,67.0599 75.3963,70.2266 80.5,73C 82.8333,73.6667 85.1667,73.6667 87.5,73C 80.6376,67.9716 73.6376,63.1382 66.5,58.5C 65.3519,50.8332 65.3519,43.1666 66.5,35.5C 67.5,35.5 68.5,35.5 69.5,35.5C 69.5,37.1667 69.5,38.8333 69.5,40.5C 72.8333,40.5 76.1667,40.5 79.5,40.5C 79.5121,52.4274 80.1788,52.4274 81.5,40.5C 84.2294,36.5883 85.8961,32.255 86.5,27.5C 89.5,29.5 92.5,31.5 95.5,33.5C 96.4992,47.1504 96.8325,60.8171 96.5,74.5 Z"/></g>
<g><path style="opacity:0.905" fill="#c48882" d="M 178.5,27.5 C 177.026,28.6751 175.36,29.6751 173.5,30.5C 175.54,34.3511 177.207,34.0178 178.5,29.5C 179.417,28.8728 180.417,28.5394 181.5,28.5C 181.833,29.8333 182.167,31.1667 182.5,32.5C 181.791,33.404 180.791,33.7373 179.5,33.5C 178.599,34.2905 177.932,35.2905 177.5,36.5C 176.142,35.3744 174.808,35.3744 173.5,36.5C 172.828,38.5295 172.162,40.5295 171.5,42.5C 169.087,44.0507 166.421,44.7174 163.5,44.5C 162.448,38.7428 164.115,34.0762 168.5,30.5C 172.151,30.182 174.151,28.182 174.5,24.5C 175.283,26.2882 176.616,27.2882 178.5,27.5 Z"/></g>
<g><path style="opacity:1" fill="#a8a8c9" d="M 181.5,28.5 C 180.417,28.5394 179.417,28.8728 178.5,29.5C 177.207,34.0178 175.54,34.3511 173.5,30.5C 175.36,29.6751 177.026,28.6751 178.5,27.5C 179.496,27.5858 180.329,27.2524 181,26.5C 182.38,27.2555 182.547,27.9222 181.5,28.5 Z"/></g>
<g><path style="opacity:0.984" fill="#023b84" d="M 192.5,32.5 C 192.833,32.5 193.167,32.5 193.5,32.5C 200.932,31.5882 207.266,33.7548 212.5,39C 222.527,45.9011 229.527,55.0677 233.5,66.5C 230.597,68.6477 227.264,70.1477 223.5,71C 222.243,74.2909 220.91,77.4576 219.5,80.5C 217.393,79.5318 215.059,79.1984 212.5,79.5C 212.5,78.1667 212.5,76.8333 212.5,75.5C 210.194,75.9926 207.861,76.3259 205.5,76.5C 199.579,69.0125 193.412,61.6791 187,54.5C 183.796,59.4307 180.962,64.5974 178.5,70C 172.236,73.1799 167.736,71.6799 165,65.5C 164.229,58.5151 163.729,51.5151 163.5,44.5C 166.421,44.7174 169.087,44.0507 171.5,42.5C 172.329,45.8151 173.162,49.1484 174,52.5C 176.121,48.5932 177.955,44.5932 179.5,40.5C 180.71,40.0679 181.71,39.4013 182.5,38.5C 186.122,41.7216 189.288,45.3882 192,49.5C 192.499,43.8431 192.666,38.1764 192.5,32.5 Z"/></g>
<g><path style="opacity:0.905" fill="#d4e6fe" d="M 131.5,33.5 C 136.342,35.5122 138.342,39.1788 137.5,44.5C 136.833,44.5 136.167,44.5 135.5,44.5C 136.093,41.4041 135.093,39.0708 132.5,37.5C 129.86,38.3352 127.193,38.5019 124.5,38C 122.771,39.7889 122.104,41.9556 122.5,44.5C 122.167,44.5 121.833,44.5 121.5,44.5C 120.707,36.963 124.04,33.2964 131.5,33.5 Z"/></g>
<g><path style="opacity:1" fill="#447dd6" d="M 182.5,32.5 C 183.167,32.5 183.833,32.5 184.5,32.5C 183.594,33.9649 182.261,34.9649 180.5,35.5C 179.702,35.0431 179.369,34.3764 179.5,33.5C 180.791,33.7373 181.791,33.404 182.5,32.5 Z"/></g>
<g><path style="opacity:1" fill="#bd8481" d="M 192.5,32.5 C 192.666,38.1764 192.499,43.8431 192,49.5C 189.288,45.3882 186.122,41.7216 182.5,38.5C 183.836,36.9897 185.003,35.3231 186,33.5C 186.414,33.9574 186.914,34.2907 187.5,34.5C 189.075,33.5435 190.742,32.8769 192.5,32.5 Z"/></g>
<g><path style="opacity:1" fill="#c68d88" d="M 135.5,44.5 C 134.539,46.2646 134.205,48.2646 134.5,50.5C 130.833,49.1667 127.167,49.1667 123.5,50.5C 123.795,48.2646 123.461,46.2646 122.5,44.5C 122.104,41.9556 122.771,39.7889 124.5,38C 127.193,38.5019 129.86,38.3352 132.5,37.5C 135.093,39.0708 136.093,41.4041 135.5,44.5 Z"/></g>
<g><path style="opacity:1" fill="#c78982" d="M 121.5,44.5 C 121.833,44.5 122.167,44.5 122.5,44.5C 122.5,46.1667 122.5,47.8333 122.5,49.5C 120.31,48.2524 119.977,46.5857 121.5,44.5 Z"/></g>
<g><path style="opacity:0.992" fill="#d2e1f8" d="M 122.5,44.5 C 123.461,46.2646 123.795,48.2646 123.5,50.5C 127.167,49.1667 130.833,49.1667 134.5,50.5C 134.205,48.2646 134.539,46.2646 135.5,44.5C 135.205,46.7354 135.539,48.7354 136.5,50.5C 137.11,51.391 137.443,52.391 137.5,53.5C 137.508,55.0502 137.175,56.7168 136.5,58.5C 134.999,59.7515 133.332,60.7515 131.5,61.5C 130.5,61.5 129.5,61.5 128.5,61.5C 121.797,60.0965 119.797,56.0965 122.5,49.5C 122.5,47.8333 122.5,46.1667 122.5,44.5 Z"/></g>
<g><path style="opacity:0.666" fill="#c68b84" d="M 135.5,44.5 C 136.167,44.5 136.833,44.5 137.5,44.5C 138.865,46.7508 138.531,48.7508 136.5,50.5C 135.539,48.7354 135.205,46.7354 135.5,44.5 Z"/></g>
<g><path style="opacity:0.975" fill="#c18782" d="M 145.5,60.5 C 144.475,61.3739 143.808,62.5405 143.5,64C 146.466,71.0674 149.133,78.2341 151.5,85.5C 151.122,89.8502 148.789,91.5168 144.5,90.5C 142.896,89.713 142.229,88.3797 142.5,86.5C 141.098,76.9105 139.098,67.5772 136.5,58.5C 137.175,56.7168 137.508,55.0502 137.5,53.5C 139.17,51.0754 141.17,50.9087 143.5,53C 145.659,55.3754 146.325,57.8754 145.5,60.5 Z"/></g>
<g><path style="opacity:0.995" fill="#063c84" d="M 136.5,58.5 C 139.098,67.5772 141.098,76.9105 142.5,86.5C 139.182,92.465 135.849,98.465 132.5,104.5C 129.732,102.913 127.065,101.08 124.5,99C 117.897,97.7264 111.23,97.2264 104.5,97.5C 104.33,96.1779 104.663,95.0113 105.5,94C 104.584,93.7216 103.918,93.2216 103.5,92.5C 107.5,89.8333 107.5,87.1667 103.5,84.5C 103.351,83.448 103.517,82.448 104,81.5C 106.752,78.3158 109.252,74.9825 111.5,71.5C 114.173,66.3132 118.506,63.3132 124.5,62.5C 124.192,64.924 124.526,67.2573 125.5,69.5C 127.902,67.1029 129.902,64.4363 131.5,61.5C 133.332,60.7515 134.999,59.7515 136.5,58.5 Z"/></g>
<g><path style="opacity:1" fill="#b78282" d="M 128.5,61.5 C 129.5,61.5 130.5,61.5 131.5,61.5C 129.902,64.4363 127.902,67.1029 125.5,69.5C 124.526,67.2573 124.192,64.924 124.5,62.5C 125.708,61.7659 127.041,61.4326 128.5,61.5 Z"/></g>
<g><path style="opacity:0.819" fill="#193e85" d="M 145.5,60.5 C 148.458,68.5398 151.124,76.7064 153.5,85C 152.743,90.9684 149.743,92.8017 144.5,90.5C 148.789,91.5168 151.122,89.8502 151.5,85.5C 149.133,78.2341 146.466,71.0674 143.5,64C 143.808,62.5405 144.475,61.3739 145.5,60.5 Z"/></g>
<g><path style="opacity:0.965" fill="#2a88fe" d="M 233.5,66.5 C 237.64,72.6893 237.973,79.0226 234.5,85.5C 231.169,88.1719 228.835,91.5053 227.5,95.5C 224.687,99.0979 221.853,102.765 219,106.5C 217.872,108.345 217.372,110.345 217.5,112.5C 215.603,114.698 214.603,117.364 214.5,120.5C 216.216,120.371 217.883,120.038 219.5,119.5C 220.686,120.705 220.686,122.039 219.5,123.5C 216.911,123.461 214.911,124.461 213.5,126.5C 209.589,131.322 205.922,136.322 202.5,141.5C 202.167,141.5 201.833,141.5 201.5,141.5C 198.948,139.057 195.948,137.39 192.5,136.5C 193.631,133.111 194.964,129.778 196.5,126.5C 195.159,124.166 195.826,122.499 198.5,121.5C 199.788,119.261 200.788,116.928 201.5,114.5C 203.043,113.264 204.043,111.598 204.5,109.5C 202.207,108.973 199.873,109.306 197.5,110.5C 191.905,106.41 186.739,101.744 182,96.5C 181.333,93.5 181.333,90.5 182,87.5C 189.848,83.6565 197.682,79.9899 205.5,76.5C 207.861,76.3259 210.194,75.9926 212.5,75.5C 212.5,76.8333 212.5,78.1667 212.5,79.5C 212.128,83.6548 211.128,87.6548 209.5,91.5C 209.667,92.1667 209.833,92.8333 210,93.5C 211.044,92.3774 211.71,91.0441 212,89.5C 214.047,92.9638 215.713,96.6305 217,100.5C 220.659,94.2593 221.492,87.5926 219.5,80.5C 220.91,77.4576 222.243,74.2909 223.5,71C 227.264,70.1477 230.597,68.6477 233.5,66.5 Z M 205.5,94.5 C 206.713,95.4971 206.546,96.4971 205,97.5C 203.205,96.2805 203.372,95.2805 205.5,94.5 Z"/></g>
<g><path style="opacity:0.975" fill="#b9bbc6" d="M 111.5,71.5 C 109.252,74.9825 106.752,78.3158 104,81.5C 103.517,82.448 103.351,83.448 103.5,84.5C 101.958,83.6993 100.292,83.366 98.5,83.5C 97.701,80.5701 97.3677,77.5701 97.5,74.5C 98.6266,73.8783 99.6266,73.045 100.5,72C 104.152,71.5014 107.818,71.3347 111.5,71.5 Z"/></g>
<g><path style="opacity:0.88" fill="#98c5fe" d="M 31.5,61.5 C 34.5184,61.3354 37.5184,61.502 40.5,62C 42.4031,66.3033 44.4031,70.47 46.5,74.5C 47.4129,78.1594 48.7463,81.6594 50.5,85C 58.4931,85.4997 66.4931,85.6664 74.5,85.5C 74.5,86.5 74.5,87.5 74.5,88.5C 74.1667,88.5 73.8333,88.5 73.5,88.5C 63.1667,88.5 52.8333,88.5 42.5,88.5C 42.5,87.5 42.5,86.5 42.5,85.5C 34.5,85.5 26.5,85.5 18.5,85.5C 14.7325,77.8736 11.7325,69.8736 9.5,61.5C 16.8333,61.5 24.1667,61.5 31.5,61.5 Z"/></g>
<g><path style="opacity:1" fill="#fcfdff" d="M 12.5,64.5 C 21.3238,63.3427 30.3238,63.176 39.5,64C 42.1667,70.6667 44.8333,77.3333 47.5,84C 38.5,84.6667 29.5,84.6667 20.5,84C 17.9094,77.3766 15.2427,70.8766 12.5,64.5 Z"/></g>
<g><path style="opacity:1" fill="#4995ff" d="M 23.5,69.5 C 25.8614,70.4348 28.0281,71.7682 30,73.5C 31.353,72.3147 32.5197,70.9814 33.5,69.5C 34.3081,69.8076 34.9747,70.3076 35.5,71C 34.7433,72.5122 33.7433,73.8455 32.5,75C 33.8333,76 35.1667,77 36.5,78C 34.7601,79.827 33.0935,79.6603 31.5,77.5C 28.1819,80.3588 27.1819,79.6922 28.5,75.5C 26.6414,73.8076 24.6414,72.3076 22.5,71C 23.056,70.6174 23.3893,70.1174 23.5,69.5 Z"/></g>
<g><path style="opacity:1" fill="#be8787" d="M 212.5,79.5 C 215.059,79.1984 217.393,79.5318 219.5,80.5C 221.492,87.5926 220.659,94.2593 217,100.5C 215.713,96.6305 214.047,92.9638 212,89.5C 211.71,91.0441 211.044,92.3774 210,93.5C 209.833,92.8333 209.667,92.1667 209.5,91.5C 211.128,87.6548 212.128,83.6548 212.5,79.5 Z"/></g>
<g><path style="opacity:0.915" fill="#c38782" d="M 98.5,83.5 C 100.292,83.366 101.958,83.6993 103.5,84.5C 107.5,87.1667 107.5,89.8333 103.5,92.5C 102.508,92.3284 101.842,92.6618 101.5,93.5C 99.2986,92.4336 96.9653,91.767 94.5,91.5C 93.158,90.207 91.4913,89.3736 89.5,89C 85.8484,88.5014 82.1817,88.3347 78.5,88.5C 76.0688,87.2591 76.0688,86.0924 78.5,85C 76.2115,84.1779 73.8782,83.5112 71.5,83C 71.8333,82.6667 72.1667,82.3333 72.5,82C 81.1799,82.034 89.8465,82.534 98.5,83.5 Z"/></g>
<g><path style="opacity:0.992" fill="#67a5f4" d="M 18.5,85.5 C 26.5,85.5 34.5,85.5 42.5,85.5C 42.5,86.5 42.5,87.5 42.5,88.5C 52.8333,88.5 63.1667,88.5 73.5,88.5C 55.2645,89.8246 36.9311,89.8246 18.5,88.5C 18.5,87.5 18.5,86.5 18.5,85.5 Z"/></g>
<g><path style="opacity:0.882" fill="#033b84" d="M 18.5,88.5 C 36.9311,89.8246 55.2645,89.8246 73.5,88.5C 73.8333,88.5 74.1667,88.5 74.5,88.5C 75.8333,88.5 77.1667,88.5 78.5,88.5C 82.1817,88.3347 85.8484,88.5014 89.5,89C 91.4913,89.3736 93.158,90.207 94.5,91.5C 91.3752,92.4794 88.0419,92.8128 84.5,92.5C 83.1667,92.5 81.8333,92.5 80.5,92.5C 63.8333,92.5 47.1667,92.5 30.5,92.5C 29.1667,92.5 27.8333,92.5 26.5,92.5C 23.1667,92.5 19.8333,92.5 16.5,92.5C 16.1568,90.5168 16.8235,89.1834 18.5,88.5 Z"/></g>
<g><path style="opacity:0.888" fill="#80b5f3" d="M 26.5,92.5 C 27.8333,92.5 29.1667,92.5 30.5,92.5C 24.1921,114.397 18.1921,136.397 12.5,158.5C 11.5,158.5 10.5,158.5 9.5,158.5C 14.5389,136.345 20.2055,114.345 26.5,92.5 Z"/></g>
<g><path style="opacity:0.976" fill="#92c1fd" d="M 80.5,92.5 C 81.8333,92.5 83.1667,92.5 84.5,92.5C 84.6985,94.9599 85.3652,97.2933 86.5,99.5C 91.8521,98.6636 97.1854,97.6636 102.5,96.5C 101.873,95.5832 101.539,94.5832 101.5,93.5C 101.842,92.6618 102.508,92.3284 103.5,92.5C 103.918,93.2216 104.584,93.7216 105.5,94C 104.663,95.0113 104.33,96.1779 104.5,97.5C 111.23,97.2264 117.897,97.7264 124.5,99C 127.065,101.08 129.732,102.913 132.5,104.5C 132.293,107.241 131.293,109.574 129.5,111.5C 128.527,111.987 127.527,112.487 126.5,113C 120.843,113.499 115.176,113.666 109.5,113.5C 109.232,115.099 109.566,116.432 110.5,117.5C 109.242,122.942 107.575,128.276 105.5,133.5C 106.705,136.45 107.705,139.45 108.5,142.5C 108.586,143.496 108.252,144.329 107.5,145C 102.287,145.07 97.2872,145.903 92.5,147.5C 93.6551,142.08 93.1551,136.746 91,131.5C 84.9657,123.764 80.7991,115.097 78.5,105.5C 78.8408,102.813 80.1742,100.813 82.5,99.5C 81.6751,97.1987 81.0084,94.8654 80.5,92.5 Z"/></g>
<g><path style="opacity:1" fill="#9ec6f9" d="M 201.5,114.5 C 199.833,113.5 198.5,112.167 197.5,110.5C 199.873,109.306 202.207,108.973 204.5,109.5C 204.043,111.598 203.043,113.264 201.5,114.5 Z"/></g>
<g><path style="opacity:0.89" fill="#77b3fe" d="M 217.5,112.5 C 218.566,114.701 219.233,117.035 219.5,119.5C 217.883,120.038 216.216,120.371 214.5,120.5C 214.603,117.364 215.603,114.698 217.5,112.5 Z"/></g>
<g><path style="opacity:0.863" fill="#cacbd3" d="M 129.5,111.5 C 131.424,113.09 131.757,114.924 130.5,117C 125.845,117.499 121.179,117.666 116.5,117.5C 116.5,126.833 116.5,136.167 116.5,145.5C 114.833,145.5 113.167,145.5 111.5,145.5C 111.827,135.985 111.494,126.652 110.5,117.5C 109.566,116.432 109.232,115.099 109.5,113.5C 115.176,113.666 120.843,113.499 126.5,113C 127.527,112.487 128.527,111.987 129.5,111.5 Z"/></g>
<g><path style="opacity:0.569" fill="#bec0ca" d="M 234.5,85.5 C 237.833,85.5 241.167,85.5 244.5,85.5C 244.89,90.7254 242.723,94.3921 238,96.5C 239.4,116.001 241.233,135.501 243.5,155C 242.736,160.842 242.069,160.676 241.5,154.5C 240.565,144.816 239.565,135.149 238.5,125.5C 230.833,125.5 223.167,125.5 215.5,125.5C 214.694,136.898 213.36,148.232 211.5,159.5C 211.167,158.333 210.833,157.167 210.5,156C 211.666,146.177 212.666,136.344 213.5,126.5C 214.911,124.461 216.911,123.461 219.5,123.5C 225.833,123.5 232.167,123.5 238.5,123.5C 237.597,114.471 236.43,105.471 235,96.5C 232.619,95.565 230.119,95.2317 227.5,95.5C 228.835,91.5053 231.169,88.1719 234.5,85.5 Z"/></g>
<g><path style="opacity:1" fill="#a1caff" d="M 192.5,136.5 C 195.948,137.39 198.948,139.057 201.5,141.5C 200.02,144.307 197.687,145.973 194.5,146.5C 192.858,145.139 191.192,143.805 189.5,142.5C 190.13,140.25 191.13,138.25 192.5,136.5 Z"/></g>
<g><path style="opacity:0.93" fill="#7db7ff" d="M 201.5,141.5 C 201.833,141.5 202.167,141.5 202.5,141.5C 200.954,143.882 200.287,146.549 200.5,149.5C 193.336,152.754 186.003,155.421 178.5,157.5C 176.314,157.489 175.481,156.489 176,154.5C 178.251,152.623 180.751,151.123 183.5,150C 185.639,147.522 187.639,145.022 189.5,142.5C 191.192,143.805 192.858,145.139 194.5,146.5C 197.687,145.973 200.02,144.307 201.5,141.5 Z"/></g>
<g><path style="opacity:0.989" fill="#61a4f1" d="M 108.5,142.5 C 109.401,143.29 110.068,144.29 110.5,145.5C 109.375,146.348 109.375,147.348 110.5,148.5C 110.5,149.167 110.5,149.833 110.5,150.5C 107.813,150.336 105.146,150.503 102.5,151C 103.337,152.011 103.67,153.178 103.5,154.5C 103.672,155.492 103.338,156.158 102.5,156.5C 100.863,155.62 99.0299,154.954 97,154.5C 95.2341,155.233 93.4008,155.567 91.5,155.5C 90.3384,153.511 89.0051,151.677 87.5,150C 88.385,147.843 90.0516,147.01 92.5,147.5C 97.2872,145.903 102.287,145.07 107.5,145C 108.252,144.329 108.586,143.496 108.5,142.5 Z"/></g>
<g><path style="opacity:0.765" fill="#8d90a1" d="M 110.5,145.5 C 110.833,145.5 111.167,145.5 111.5,145.5C 113.167,145.5 114.833,145.5 116.5,145.5C 122.59,145.985 128.59,146.985 134.5,148.5C 134.38,150.734 134.713,152.901 135.5,155C 134.891,157.803 133.225,158.803 130.5,158C 128.86,155.224 129.527,153.224 132.5,152C 132.167,151.667 131.833,151.333 131.5,151C 124.493,148.797 117.493,147.963 110.5,148.5C 109.375,147.348 109.375,146.348 110.5,145.5 Z"/></g>
<g><path style="opacity:0.787" fill="#026fea" d="M 110.5,150.5 C 109.555,153.987 107.222,155.32 103.5,154.5C 103.67,153.178 103.337,152.011 102.5,151C 105.146,150.503 107.813,150.336 110.5,150.5 Z"/></g>
<g><path style="opacity:0.851" fill="#2f8cff" d="M 200.5,149.5 C 200.709,151.714 199.876,153.381 198,154.5C 191.639,157.227 185.139,158.227 178.5,157.5C 186.003,155.421 193.336,152.754 200.5,149.5 Z"/></g>
<g><path style="opacity:0.859" fill="#0e71e7" d="M 102.5,156.5 C 101.306,157.777 99.6397,158.444 97.5,158.5C 95.8333,158.333 94.1667,158.167 92.5,158C 91.7476,157.329 91.4142,156.496 91.5,155.5C 93.4008,155.567 95.2341,155.233 97,154.5C 99.0299,154.954 100.863,155.62 102.5,156.5 Z"/></g>
</svg>
